<?xml version="1.0" standalone="no"?>
<!DOCTYPE svg PUBLIC "-//W3C//DTD SVG 20010904//EN"
 "http://www.w3.org/TR/2001/REC-SVG-20010904/DTD/svg10.dtd">
<svg version="1.0" xmlns="http://www.w3.org/2000/svg"
 width="1024.000000pt" height="1024.000000pt" viewBox="0 0 1024.000000 1024.000000"
 preserveAspectRatio="xMidYMid meet">
<metadata>
Created by potrace 1.11, written by Peter Selinger 2001-2013
</metadata>
<g transform="translate(0.000000,1024.000000) scale(0.100000,-0.100000)"
fill="#000000" stroke="none">
<path d="M4887 9204 c-4 -4 -33 -8 -65 -10 -49 -1 -144 -8 -297 -19 -39 -3
-105 -11 -175 -20 -19 -2 -57 -7 -84 -11 -27 -3 -56 -7 -65 -9 -9 -1 -36 -6
-61 -10 -70 -11 -93 -14 -120 -20 -14 -3 -38 -7 -55 -10 -16 -3 -50 -10 -75
-15 -25 -5 -56 -12 -70 -14 -110 -19 -459 -113 -479 -130 -11 -8 -13 -8 -8 1
5 7 -4 6 -23 -3 -16 -8 -39 -16 -50 -17 -11 -1 -20 -6 -20 -11 0 -5 -3 -7 -6
-3 -4 3 -29 -3 -58 -14 -28 -11 -58 -22 -66 -24 -8 -2 -28 -8 -45 -15 -16 -6
-31 -11 -33 -11 -1 1 -16 -6 -32 -14 -16 -8 -31 -15 -32 -15 -6 2 -130 -46
-193 -75 -16 -7 -77 -34 -135 -60 -58 -26 -108 -52 -111 -57 -3 -5 -9 -9 -13
-8 -10 3 -118 -50 -138 -68 -10 -8 -18 -12 -18 -8 0 4 -13 -2 -29 -13 -16 -12
-32 -21 -37 -21 -4 0 -22 -11 -39 -24 -18 -14 -44 -28 -59 -32 -14 -3 -26 -9
-26 -13 0 -7 -35 -26 -52 -30 -5 0 -17 -10 -28 -21 -11 -11 -26 -20 -34 -20
-8 0 -17 -7 -20 -16 -3 -9 -11 -14 -18 -12 -7 3 -21 -4 -33 -14 -11 -11 -65
-50 -120 -88 -55 -38 -104 -72 -110 -77 -40 -32 -76 -61 -99 -77 -15 -11 -35
-27 -45 -35 -10 -9 -40 -34 -67 -56 -51 -42 -121 -106 -186 -167 -22 -21 -45
-38 -50 -38 -6 0 -9 -2 -6 -5 3 -3 -31 -43 -76 -88 -84 -86 -123 -129 -191
-211 -22 -27 -47 -57 -55 -66 -8 -10 -24 -31 -35 -46 -11 -15 -26 -33 -33 -40
-6 -7 -12 -17 -12 -22 0 -6 -4 -12 -8 -14 -13 -5 -134 -185 -197 -293 -64
-108 -185 -345 -177 -345 3 0 -3 -10 -14 -22 -10 -12 -14 -19 -8 -15 6 3 -2
-21 -18 -54 -16 -33 -31 -74 -35 -90 -3 -16 -10 -29 -16 -29 -6 0 -8 -3 -4 -6
3 -4 0 -22 -8 -40 -8 -19 -11 -34 -8 -34 3 0 1 -6 -5 -12 -9 -12 -28 -74 -37
-120 -2 -10 -6 -22 -9 -26 -3 -5 -7 -19 -10 -33 -3 -13 -10 -44 -17 -69 -6
-25 -13 -56 -15 -70 -3 -14 -11 -61 -20 -105 -8 -44 -17 -102 -20 -130 -3 -27
-8 -61 -11 -75 -9 -47 -11 -495 -2 -575 15 -142 19 -170 23 -191 2 -12 7 -39
10 -60 3 -22 8 -50 11 -64 3 -14 7 -34 9 -46 7 -37 37 -159 46 -184 4 -14 16
-52 25 -85 10 -33 22 -71 28 -85 12 -29 18 -50 19 -67 1 -7 4 -13 8 -13 4 0 7
-6 7 -12 0 -7 10 -34 22 -60 13 -26 24 -53 25 -60 1 -7 8 -24 16 -38 8 -14 15
-27 15 -30 0 -3 7 -16 15 -30 7 -14 13 -27 13 -30 -1 -3 9 -23 20 -45 12 -22
20 -43 19 -47 -1 -5 1 -8 6 -8 4 0 14 -15 21 -32 31 -70 237 -400 261 -418 3
-3 21 -25 38 -50 48 -67 74 -101 104 -135 30 -32 33 -46 18 -74 -5 -10 -11
-29 -14 -42 -2 -13 -11 -43 -19 -66 -9 -22 -13 -44 -10 -47 4 -3 0 -6 -7 -6
-7 0 -11 -2 -8 -6 3 -3 -3 -28 -13 -55 -11 -28 -17 -54 -14 -60 4 -5 2 -9 -2
-9 -6 0 -37 -89 -49 -140 0 -3 -4 -13 -8 -22 -4 -9 -9 -22 -10 -30 -2 -7 -6
-20 -9 -28 -8 -20 -78 -239 -82 -254 -1 -6 -5 -18 -8 -26 -6 -17 -111 -342
-112 -350 -2 -10 -76 -245 -82 -260 -8 -20 -8 -20 -18 -55 -4 -16 -12 -36 -18
-42 -5 -7 -7 -13 -4 -13 5 0 -12 -58 -30 -100 -3 -8 -8 -24 -10 -35 -2 -11 -6
-27 -10 -35 -3 -8 -7 -19 -8 -25 -3 -14 -34 -107 -42 -125 -3 -8 -7 -19 -8
-25 -2 -5 -10 -34 -19 -64 -20 -69 -20 -83 2 -109 20 -23 68 -36 78 -21 3 5
10 7 15 4 5 -4 9 -1 9 4 0 6 3 10 8 9 8 -1 35 8 77 27 38 17 78 30 88 27 4 -1
7 2 7 8 0 5 4 10 9 10 9 0 310 116 376 145 50 22 68 28 108 39 15 5 27 13 27
19 0 6 3 8 6 4 3 -3 40 9 82 27 43 18 96 38 120 46 23 7 42 17 42 22 0 4 3 7
8 6 4 -1 23 4 42 11 19 8 40 15 46 16 6 2 27 10 45 18 35 16 67 29 339 137 85
34 169 68 187 76 17 8 36 14 42 14 6 0 19 4 29 10 9 5 33 15 52 23 19 8 49 20
65 27 17 7 35 14 40 16 6 1 24 8 40 15 17 7 33 12 38 11 4 -1 7 3 7 10 0 6 3
9 6 6 3 -4 27 3 52 14 26 10 56 23 67 28 18 7 51 20 65 25 24 8 46 20 51 28 3
4 13 1 22 -8 9 -8 18 -15 19 -13 2 1 23 -6 48 -17 25 -10 47 -19 50 -20 3 -1
22 -9 44 -18 21 -9 40 -17 42 -17 1 0 15 -5 31 -12 15 -6 30 -12 33 -12 3 -1
11 -5 18 -9 6 -5 12 -5 12 0 0 4 4 3 8 -2 6 -9 329 -120 377 -129 11 -2 58
-15 105 -29 47 -13 119 -32 160 -41 41 -9 91 -21 110 -26 19 -5 62 -14 95 -20
33 -6 75 -15 94 -20 19 -5 38 -7 43 -4 4 3 8 2 8 -3 0 -4 10 -8 23 -9 32 -2
118 -13 147 -19 14 -3 41 -8 60 -11 19 -2 49 -6 65 -8 17 -3 62 -8 100 -11 39
-4 86 -9 105 -11 65 -8 185 -16 257 -18 40 0 73 -5 73 -9 0 -4 9 -3 20 3 11 6
20 7 20 2 0 -4 120 -7 268 -5 230 2 377 7 377 13 0 1 36 3 80 5 44 2 80 4 80
5 0 1 18 3 40 5 22 2 61 6 87 9 26 4 64 8 86 10 21 1 43 5 48 8 5 2 24 4 42 3
17 0 32 2 32 5 0 3 8 6 18 6 20 1 108 13 137 19 11 3 31 7 45 9 14 3 36 7 50
10 13 3 42 8 64 12 22 3 44 8 49 11 5 3 23 7 40 9 18 1 95 19 172 39 77 20
147 38 155 40 45 10 326 100 395 127 44 17 85 31 90 33 6 1 26 9 45 17 19 9
59 24 88 34 28 10 52 22 52 27 0 4 4 6 9 2 5 -3 12 -1 16 5 3 5 15 10 26 10
10 0 19 5 19 11 0 5 5 7 10 4 6 -3 10 -2 10 3 0 5 6 9 14 9 13 0 321 151 401
197 22 12 63 35 90 51 106 60 342 213 367 237 10 10 22 18 27 18 5 0 16 6 23
13 7 7 49 40 93 73 43 32 86 66 95 74 9 8 32 28 52 44 20 15 58 48 85 72 26
24 52 44 56 44 5 0 5 4 2 10 -3 5 -1 10 5 10 21 0 343 334 332 344 -3 3 -1 6
5 6 12 0 155 176 186 227 10 18 22 33 27 33 4 0 13 14 20 30 7 17 16 30 19 30
4 0 15 16 24 35 9 19 22 35 27 35 6 0 9 4 5 9 -3 5 -1 12 4 15 23 15 256 449
268 502 4 19 28 79 33 84 8 8 65 183 62 192 -1 4 3 8 9 8 6 0 9 7 6 15 -4 8
-2 17 4 20 5 4 7 10 4 15 -3 5 -1 11 4 15 6 3 8 12 4 20 -3 8 1 15 8 15 7 0
10 2 7 6 -3 3 3 37 13 77 10 39 16 73 14 75 -2 3 1 14 6 25 6 11 12 32 14 46
2 14 6 44 9 66 4 22 8 51 10 65 1 14 6 32 11 39 6 10 4 12 -6 6 -11 -7 -12 -6
-2 6 7 8 12 24 12 34 0 11 3 52 6 90 10 119 13 429 4 453 -5 14 -5 22 2 22 6
0 7 5 4 10 -4 6 -9 38 -11 73 -3 34 -8 69 -11 77 -3 8 -7 31 -8 50 -1 19 -6
55 -10 80 -5 25 -9 50 -10 55 -1 6 -3 12 -4 15 -2 3 -4 16 -6 30 -4 27 -12 65
-15 65 -1 0 -3 11 -4 25 0 14 -5 30 -9 37 -4 6 -8 24 -9 40 -1 15 -5 30 -8 33
-6 6 -32 98 -33 118 0 6 -5 12 -10 12 -6 0 -7 3 -4 7 4 3 2 12 -4 20 -6 7 -9
13 -6 13 3 0 0 15 -8 34 -8 18 -11 36 -8 40 4 3 1 6 -5 6 -7 0 -12 7 -12 15 0
8 -4 23 -9 33 -5 9 -19 42 -31 72 -67 164 -222 457 -278 525 -4 6 -9 13 -10
17 -3 9 -55 85 -99 145 -18 24 -33 47 -33 52 0 5 -4 11 -8 13 -4 2 -23 23 -42
48 -19 24 -45 56 -57 70 -12 14 -31 36 -42 50 -44 52 -139 155 -201 219 -103
105 -300 284 -300 274 0 -3 -8 3 -18 13 -24 27 -119 104 -128 104 -3 0 -14 8
-23 18 -9 9 -45 37 -81 61 -36 25 -67 48 -70 51 -3 3 -23 17 -45 30 -22 13
-45 29 -52 35 -7 5 -19 16 -27 23 -8 6 -22 12 -30 12 -8 0 -16 4 -18 8 -1 5
-43 33 -93 62 -49 29 -106 63 -125 75 -19 12 -50 28 -67 36 -18 7 -33 18 -33
22 0 5 -4 5 -10 2 -5 -3 -10 -1 -10 6 0 7 -3 9 -6 6 -4 -3 -18 2 -32 13 -13
11 -28 18 -32 15 -4 -3 -13 2 -20 10 -7 8 -16 15 -20 15 -4 0 -61 25 -126 56
-66 31 -186 83 -269 115 -82 33 -158 64 -168 70 -10 5 -22 7 -27 4 -5 -3 -11
-1 -15 5 -3 5 -15 10 -26 10 -10 0 -19 4 -19 8 0 4 -12 9 -27 10 -15 1 -30 8
-35 15 -4 6 -8 9 -8 5 0 -4 -32 4 -71 17 -39 14 -75 22 -80 19 -5 -3 -9 0 -9
5 0 6 -3 10 -7 9 -5 0 -15 1 -23 4 -18 7 -206 57 -235 63 -11 2 -49 11 -85 20
-36 9 -76 18 -90 21 -14 3 -56 11 -95 19 -100 20 -148 28 -320 54 -105 16
-143 20 -220 27 -38 3 -76 11 -82 16 -8 6 -13 7 -13 1 0 -5 -10 -9 -22 -7 -13
1 -23 3 -23 4 0 2 -117 9 -185 12 -30 1 -58 7 -62 12 -5 7 -8 7 -8 1 0 -11
-61 -11 -79 -1 -5 4 -12 2 -16 -4 -4 -6 -11 -7 -17 -4 -10 6 -266 8 -340 2
-21 -2 -39 0 -41 5 -1 5 -6 5 -10 1z"/>
</g>
</svg>
